<?xml version="1.0" encoding="UTF-8"?>
<svg width="223px" height="32px" viewBox="0 0 223 32" version="1.1" xmlns="http://www.w3.org/2000/svg" xmlns:xlink="http://www.w3.org/1999/xlink">
    <!-- Generator: Sketch 48.2 (47327) - http://www.bohemiancoding.com/sketch -->
    <title>Logo</title>
    <desc>Created with Sketch.</desc>
    <defs></defs>
    <g id="Page-1" stroke="none" stroke-width="1" fill="none" fill-rule="evenodd">
        <g id="Logo" transform="translate(-1.000000, 0.000000)">
            <g id="Colmaradademy-for-logo" transform="translate(34.000000, 5.000000)" font-family="JuliusSansOne-Regular, Julius Sans One" font-size="20" font-weight="normal">
                <g id="COLMAR" fill="#000000">
                    <text>
                        <tspan x="0" y="17">COLMAR</tspan>
                    </text>
                </g>
                <g id="ACADEMY" transform="translate(91.000000, 0.000000)" fill="#6A6A6A">
                    <text>
                        <tspan x="0" y="17">ACADEMY</tspan>
                    </text>
                </g>
            </g>
            <g id="ic-logo" fill="#000000" fill-rule="nonzero">
                <g id="Group" transform="translate(13.933333, 16.000000) scale(-1, 1) translate(-13.933333, -16.000000) translate(0.933333, 0.000000)">
                    <path d="M2.05591489,9.14891087 L3.24761544,10.0719049 L5.16727244,11.5586033 C5.42564012,10.2663547 6.17362477,9.15550065 7.20821381,8.43316721 L3.51269997,5.57110532 L4.65713023,4.05230919 C5.12485415,3.43128292 5.007674,2.54312985 4.39515529,2.06865781 L1.60921379,5.76378855 C1.19672183,6.31115929 1.05267284,6.97989167 1.15193975,7.61034549 C1.24473793,8.20047132 1.55049967,8.75742731 2.05591489,9.14891087 Z" id="Shape"></path>
                    <path d="M13.7694068,22.0683729 C9.64759205,19.9076783 5.97708088,19.2967109 5.05121203,20.7806655 C4.29078823,21.9992595 5.58449208,24.3103244 8.11691731,26.6771348 L5.71299167,30.5869249 L4.07570972,30.5869249 C3.3226248,30.6078613 2.71806705,31.2316623 2.71806705,32 L4.84421955,32 L7.66300164,32 L8.53177305,30.5869249 L9.92486755,28.3210124 L10.4693426,27.435886 C10.2772782,27.1170492 10.1656959,26.7432237 10.1656959,26.3424072 C10.1656959,25.1813559 11.0940523,24.2399468 12.2394785,24.2399468 C12.3030434,24.2399468 12.3651166,24.2460341 12.4271899,24.2515516 L13.7694068,22.0683729 Z" id="Shape"></path>
                    <path d="M25.2981727,8.60381063 C25.0829704,7.55349529 24.1654351,6.76393839 23.0655395,6.76393839 C22.7515679,6.76393839 22.4525231,6.82851289 22.1805972,6.94467161 C21.3607101,7.29519719 20.7848887,8.11735701 20.7848887,9.07626475 L20.7848887,20.0415893 C20.7848887,20.8227905 20.1601803,21.4565539 19.3891803,21.4565539 C18.8279136,21.4565539 18.3451385,21.1196832 18.12359,20.6352783 C18.1039357,20.5922703 18.0862719,20.5478435 18.0708476,20.5026924 L16.7749049,17.2462456 L19.2904109,8.64114244 C19.2921527,8.63562485 19.2945179,8.62982311 19.2962596,8.62399019 C19.3268595,8.52763264 19.3537296,8.43127505 19.3799764,8.33466524 C20.2961419,4.9627862 18.6474155,1.44283889 15.5645455,0 L9.63963104,2.08858507 C8.91229531,2.34045137 8.52343885,3.14085489 8.7681226,3.87867025 L10.2685708,3.33470492 C10.861684,3.11963503 11.5142578,3.43279655 11.7263498,4.03389553 C11.9384431,4.63499417 11.6295711,5.2968838 11.0365823,5.51182795 L9.48849131,6.07304079 C9.75880115,6.79824356 10.5551758,7.16904299 11.2745492,6.90131701 L12.9094673,6.29249337 C13.0255271,6.95945977 12.6558273,7.63380399 12.0056159,7.86927424 L8.87360873,9.02480676 C7.55229023,9.59740196 6.6151006,10.9010024 6.55016721,12.4336399 C6.54780339,12.4898899 6.543948,12.545889 6.543948,12.6026747 C6.543948,12.6374539 6.54743019,12.6715387 6.54842547,12.7060954 C6.54220624,12.6901734 6.53822507,12.6796102 6.53822507,12.6796102 L1.64951773,12.6796102 L1.64951773,10.7683215 C1.64951773,10.2341933 0.998063588,9.76968459 0.585197695,9.52879172 L0.253810569,9.35322951 L0.253810569,14.0371583 C0.271474639,15.3556411 1.3295751,16.4192303 2.63422513,16.4192303 L8.14838931,16.4192303 C8.63676153,16.4192303 9.11145117,16.4781292 9.56623767,16.5886448 C9.54401887,16.5831896 9.52213984,16.5750543 9.5000294,16.5686225 C9.52385084,16.5757163 9.54770305,16.58278 9.5719606,16.5886448 C9.58614083,16.5921441 9.60044681,16.5959284 9.61475276,16.5995851 C12.072291,17.2161975 13.938708,19.3523615 14.1872484,21.9687691 C14.1914784,22.014426 14.1942141,22.0605551 14.1975732,22.1067167 C14.2086445,22.2583144 14.2159835,22.4106691 14.2159835,22.5650445 C14.2159835,24.0378988 13.7045979,25.389426 12.8524949,26.4481283 C12.7900484,26.5257895 12.7257357,26.6019965 12.6596827,26.6763781 C12.4856552,26.9278647 12.3825315,27.2335857 12.3825315,27.5642796 C12.3825315,28.4201444 13.0670751,29.1140707 13.9113415,29.1140707 C14.2151127,29.1140707 14.4979867,29.0242703 14.7358291,28.8696751 L17.8311403,27.0174452 C18.2581871,27.2596001 18.5470301,27.7216797 18.5470301,28.2529379 C18.5470301,28.6040311 18.4208931,28.9256429 18.2119113,29.1728435 L16.9274119,30.5869249 L15.3605388,30.5869249 L15.3597924,30.5869249 L15.2839108,30.5869249 C14.5310748,30.6078613 13.9265171,31.2316623 13.9265171,32 L16.7174349,32 L16.7179327,32 L18.4029805,32 C18.4029805,30.6661296 19.4694163,29.5850097 20.7848887,29.5850097 L20.7848887,25.4656033 C19.6933273,25.2451416 18.8704569,24.2692383 18.8704569,23.0977837 C18.8704569,23.0390435 18.8731913,22.9807427 18.8772983,22.9227593 C19.0168692,22.9439155 19.1581817,22.9585449 19.3035985,22.9585449 C19.8462061,22.9585449 20.3517471,22.8034152 20.7848887,22.5385905 C21.6203232,22.0280137 22.1805972,21.1023085 22.1805972,20.0415893 L22.1805972,9.07626479 C22.1805972,8.56534289 22.589108,8.15131495 23.0929045,8.15131495 C23.5789143,8.15131495 23.9751124,8.53696559 24.0024803,9.02307264 C23.3757787,9.45803697 22.9642819,10.1881904 22.9642819,11.0164035 C22.9642819,12.3501465 24.0305919,13.4312676 25.3461901,13.4312676 L25.3461901,9.07626479 C25.34619,8.91432359 25.3295216,8.75654432 25.2981727,8.60381063 Z" id="Shape"></path>
                </g>
            </g>
        </g>
    </g>
</svg>